HIERARCHY
ROOT Hips
{
	OFFSET -278.121490 93.318451 465.951996
	CHANNELS 6 Xposition Yposition Zposition Zrotation Yrotation Xrotation 
	JOINT LeftUpLeg
	{
		OFFSET 0.103457 1.857822 10.548516
		CHANNELS 3 Zrotation Yrotation Xrotation
		JOINT LeftLeg
		{
			OFFSET 43.500008 -0.000031 0.000015
			CHANNELS 3 Zrotation Yrotation Xrotation
			JOINT LeftFoot
			{
				OFFSET 42.372192 0.000027 -0.000009
				CHANNELS 3 Zrotation Yrotation Xrotation
				JOINT LeftToe
				{
					OFFSET 17.299999 0.000000 -0.000004
					CHANNELS 3 Zrotation Yrotation Xrotation
					End Site
					{
						OFFSET 0.000000 0.000000 0.000000
					}
				}
			}
		}
	}
	JOINT RightUpLeg
	{
		OFFSET 0.103460 1.857822 -10.548513
		CHANNELS 3 Zrotation Yrotation Xrotation
		JOINT RightLeg
		{
			OFFSET 43.500038 -0.000015 -0.000002
			CHANNELS 3 Zrotation Yrotation Xrotation
			JOINT RightFoot
			{
				OFFSET 42.372269 -0.000019 0.000014
				CHANNELS 3 Zrotation Yrotation Xrotation
				JOINT RightToe
				{
					OFFSET 17.300005 -0.000001 0.000011
					CHANNELS 3 Zrotation Yrotation Xrotation
					End Site
					{
						OFFSET 0.000000 0.000000 0.000000
					}
				}
			}
		}
	}
	JOINT Spine
	{
		OFFSET 6.901966 -2.603743 -0.000003
		CHANNELS 3 Zrotation Yrotation Xrotation
		JOINT Spine1
		{
			OFFSET 12.588103 0.000012 0.000008
			CHANNELS 3 Zrotation Yrotation Xrotation
			JOINT Spine2
			{
				OFFSET 12.343199 0.000004 0.000007
				CHANNELS 3 Zrotation Yrotation Xrotation
				JOINT Neck
				{
					OFFSET 25.832901 -0.000008 -0.000001
					CHANNELS 3 Zrotation Yrotation Xrotation
					JOINT Head
					{
						OFFSET 11.766611 0.000029 -0.000004
						CHANNELS 3 Zrotation Yrotation Xrotation
						End Site
						{
							OFFSET 0.000000 0.000000 0.000000
						}
					}
				}
				JOINT LeftShoulder
				{
					OFFSET 19.745907 -1.480370 6.000077
					CHANNELS 3 Zrotation Yrotation Xrotation
					JOINT LeftArm
					{
						OFFSET 11.284128 -0.000004 -0.000015
						CHANNELS 3 Zrotation Yrotation Xrotation
						JOINT LeftForeArm
						{
							OFFSET 33.000065 0.000010 0.000016
							CHANNELS 3 Zrotation Yrotation Xrotation
							JOINT LeftHand
							{
								OFFSET 25.200001 0.000010 0.000006
								CHANNELS 3 Zrotation Yrotation Xrotation
								End Site
								{
									OFFSET 0.000000 0.000000 0.000000
								}
							}
						}
					}
				}
				JOINT RightShoulder
				{
					OFFSET 19.746094 -1.480385 -6.000086
					CHANNELS 3 Zrotation Yrotation Xrotation
					JOINT RightArm
					{
						OFFSET 11.284142 -0.000011 -0.000013
						CHANNELS 3 Zrotation Yrotation Xrotation
						JOINT RightForeArm
						{
							OFFSET 33.000092 0.000004 0.000015
							CHANNELS 3 Zrotation Yrotation Xrotation
							JOINT RightHand
							{
								OFFSET 25.199759 0.000141 0.000412
								CHANNELS 3 Zrotation Yrotation Xrotation
								End Site
								{
									OFFSET 0.000000 0.000000 0.000000
								}
							}
						}
					}
				}
			}
		}
	}
}
MOTION
Frames: 8
Frame Time: 0.033333
219.322098 5.142706 505.266693 2.054101 9.683382 2.515014 141.846596 -14.524201 174.819457 -66.017986 -4.123403 2.211257 55.712975 -10.610771 -18.435367 21.454557 0.003091 -0.000000 161.199226 23.109405 -175.378603 -34.954101 0.259144 2.614000 73.470631 2.197578 13.062950 21.454550 -0.003108 -0.000018 16.353742 -1.097169 -0.091448 22.702417 -2.155053 -0.396382 22.384087 -2.157273 -0.383336 42.475116 6.123385 0.722846 -13.864245 -0.733904 -0.419489 142.296418 -77.668034 36.846883 -40.902069 49.620768 20.060090 -67.462619 -19.427556 2.697555 -2.097985 13.952768 49.481715 144.016205 73.119108 -35.437327 -24.874309 -48.301336 -23.016879 -70.862536 17.822692 -2.761118 2.201599 -3.764079 -50.116827 
219.025299 5.072698 505.273895 3.054095 10.088899 3.053955 141.267641 -13.843308 174.716840 -65.400407 -4.252251 2.123754 55.883631 -10.490422 -18.407997 21.454551 0.003093 0.000000 159.492280 23.970503 -174.070240 -36.463631 -0.098625 1.542602 73.583486 2.843100 12.642392 21.454551 -0.003109 -0.000017 16.453752 -1.105251 -0.038083 22.901641 -2.181074 -0.294131 22.583300 -2.182680 -0.280930 42.965725 6.796920 0.934749 -14.257715 -0.601649 -0.426189 141.384479 -77.805342 37.760612 -40.967748 48.549873 20.548119 -68.763770 -18.573135 2.690953 -3.370398 13.355950 49.148747 143.710131 73.145418 -35.747076 -22.831328 -48.713999 -22.371060 -73.319847 17.061925 -2.811991 2.158745 -2.736960 -53.629539 
218.707901 5.052676 505.273987 4.075626 10.411180 3.362060 140.769584 -13.329699 174.290076 -64.811610 -4.187962 2.123103 56.123562 -10.383965 -18.290019 21.454557 0.003093 -0.000003 157.644564 24.494706 -174.081660 -37.993798 -0.164018 1.038369 73.645142 3.187393 12.577799 21.454543 -0.003109 -0.000019 16.515640 -1.132214 0.007391 23.024950 -2.243225 -0.210606 22.706566 -2.244324 -0.197033 43.478375 6.958834 1.048020 -13.818065 -0.359912 -0.460662 141.762817 -77.886088 37.371899 -40.668367 47.638951 21.629674 -70.358503 -18.046354 2.720184 -4.021424 12.812739 50.147498 143.062520 73.281591 -36.396784 -21.389586 -49.565262 -21.574121 -75.298628 16.568608 -2.862372 1.773572 -2.359640 -57.291111 
218.402206 5.047468 505.282715 5.261589 10.572770 3.652954 140.079393 -12.868805 174.015639 -64.248598 -4.157180 2.119668 56.372143 -10.202369 -18.025988 21.454550 0.003093 0.000002 155.697222 24.716397 -174.966019 -39.370430 0.054138 1.016623 73.657832 3.267679 12.792751 21.454558 -0.003110 -0.000017 16.512949 -1.144823 0.034232 23.019191 -2.273540 -0.159906 22.700832 -2.274329 -0.146147 44.064726 6.836986 1.068119 -13.031789 -0.042541 -0.554509 142.654580 -77.951303 36.464307 -39.939798 47.272084 22.345818 -72.209559 -17.562177 2.763893 -4.060102 12.620881 52.313064 143.005228 73.506728 -36.439285 -20.418451 -50.720274 -20.766309 -76.751546 16.242316 -2.902437 1.858030 -2.410905 -60.177327 
218.092804 5.059683 505.294708 6.487593 10.638011 3.900024 139.350981 -12.435395 173.899089 -63.633184 -4.174861 2.139731 56.612112 -10.088481 -17.859910 21.454553 0.003093 0.000000 153.733201 24.860505 -175.638656 -40.699342 0.152292 0.917559 73.760265 3.389630 12.990290 21.454560 -0.003109 -0.000018 16.497188 -1.156746 0.020459 22.988074 -2.294467 -0.189247 22.669686 -2.295435 -0.175364 44.535808 6.587332 1.077912 -12.246357 -0.022324 -0.514061 144.597386 -78.008963 34.492653 -39.100893 47.503467 22.466813 -73.779546 -17.244313 2.808181 -3.786475 12.899881 54.779244 143.045171 73.834598 -36.375610 -19.955173 -51.939374 -19.647246 -77.953796 15.767826 -2.921317 2.510207 -2.693666 -63.043746 
217.783600 5.091087 505.304810 7.667465 10.628470 4.053955 138.651993 -12.022094 173.789013 -62.939442 -4.109273 2.180595 56.907989 -9.970518 -17.670102 21.454555 0.003092 0.000000 151.842250 24.926999 -176.271145 -41.949847 0.259468 0.811684 73.904737 3.479222 13.087593 21.454558 -0.003108 -0.000018 16.496452 -1.172558 0.010551 22.986957 -2.323808 -0.212000 22.668582 -2.324911 -0.197937 44.856560 6.432159 1.105078 -11.632914 -0.193037 -0.405848 145.995498 -77.952157 33.079723 -38.126225 48.310853 21.770104 -75.281109 -16.761689 2.838355 -3.042451 13.152594 58.302017 143.366941 74.009198 -36.036280 -19.439256 -52.918533 -18.679543 -79.087826 15.379153 -2.943531 2.983690 -2.880515 -65.728092 
217.482300 5.129807 505.319489 8.736398 10.565280 4.074951 138.124388 -11.673207 173.760163 -62.083646 -4.068571 2.158509 57.287891 -9.885027 -17.676926 21.454555 0.003093 -0.000003 150.122982 24.957796 -176.711610 -43.024383 0.327268 0.687873 73.995783 3.589018 13.186869 21.454557 -0.003110 -0.000017 16.529845 -1.196662 0.006316 23.054151 -2.370554 -0.225864 22.735751 -2.371743 -0.211520 44.951603 6.329420 1.166589 -11.084872 -0.382798 -0.254314 146.950373 -77.944288 32.112322 -37.223049 49.332230 20.720209 -76.769134 -16.138923 2.858385 -2.239143 13.381292 61.752020 143.640026 74.137407 -35.749681 -18.876566 -53.721818 -17.866602 -80.277317 15.011837 -2.969909 3.400114 -2.876522 -67.723655 
217.195801 5.154486 505.324188 9.765816 10.374141 3.984986 137.632137 -11.438401 174.069092 -61.076474 -4.151104 2.012666 57.622625 -9.798006 -17.863581 21.454550 0.003092 -0.000002 148.536028 24.861098 -176.820374 -43.882886 0.256405 0.568359 73.992416 3.726762 13.338979 21.454568 -0.003110 -0.000016 16.575240 -1.213686 0.016749 23.144963 -2.406161 -0.209546 22.826557 -2.407249 -0.194984 44.963825 6.214124 1.224503 -10.797438 -0.516518 -0.117799 147.961828 -78.050108 31.080110 -36.686657 50.367232 19.745829 -77.963399 -15.687609 2.878188 -1.238486 13.598463 64.280789 143.378689 74.271081 -36.006114 -18.149115 -54.515882 -17.062875 -81.379272 14.624600 -2.991185 3.588570 -2.911279 -69.356248 
